<svg height="512pt" viewBox="0 0 512 512" width="512pt" xmlns="http://www.w3.org/2000/svg" xmlns:xlink="http://www.w3.org/1999/xlink"><linearGradient id="a" gradientTransform="matrix(1 0 0 -1 0 -16582)" gradientUnits="userSpaceOnUse" x1="0" x2="512" y1="-16838" y2="-16838"><stop offset="0" stop-color="#00f1ff"/><stop offset=".231" stop-color="#00d8ff"/><stop offset=".5138" stop-color="#00c0ff"/><stop offset=".7773" stop-color="#00b2ff"/><stop offset="1" stop-color="#00adff"/></linearGradient><path d="m512 256c0 141.386719-114.613281 256-256 256s-256-114.613281-256-256 114.613281-256 256-256 256 114.613281 256 256zm0 0" fill="url(#a)"/><path d="m347.828125 241.164062c11.074219-10.015624 19.824219-22.714843 25.101563-37.332031 3.664062-10.140625 5.519531-20.789062 5.519531-31.652343 0-51.378907-41.800781-93.179688-93.179688-93.179688h-148.269531c-8.285156 0-15 6.714844-15 15v324c0 8.285156 6.714844 15 15 15h177.996094c15.277344 0 30.574218-3.171875 43.074218-8.925781 7.523438-3.464844 10.816407-12.375 7.351563-19.898438-3.46875-7.527343-12.375-10.816406-19.902344-7.351562-8.648437 3.980469-19.488281 6.175781-30.523437 6.175781h-162.996094v-294h133.269531c34.835938 0 63.179688 28.34375 63.179688 63.179688 0 7.378906-1.257813 14.597656-3.734375 21.460937-9.011719 24.949219-32.898438 41.714844-59.441406 41.714844-.695313 0-1.371094.0625-2.039063.152343h-77.589844c-8.285156 0-15 6.71875-15 15 0 8.285157 6.714844 15 15 15h109.351563c37.792968 0 68.539062 30.933594 68.539062 68.957032 0 7.847656-1.125 15.179687-3.339844 21.792968-2.632812 7.855469 1.601563 16.355469 9.453126 18.988282 1.582031.53125 3.191406.78125 4.769531.78125 6.273437 0 12.117187-3.960938 14.222656-10.234375 3.246094-9.695313 4.894531-20.234375 4.894531-31.328125 0-43.007813-27.46875-79.691406-65.707031-93.300782zm0 0" fill="#fff"/></svg>